<svg version="1.1" viewBox="0 0 64 64" xmlns="http://www.w3.org/2000/svg" xmlns:xlink="http://www.w3.org/1999/xlink">
  <style type="text/css">.st0{fill:#FFFFFF;}
	.st1{opacity:0.7;}
	.st2{fill:none;}
	.st3{clip-path:url(#SVGID_2_);}
	.st4{fill:#FFA000;}
	.st5{opacity:0.12;fill:url(#SVGID_3_);enable-background:new    ;}
	.st6{fill:#F57C00;}
	.st7{opacity:0.2;fill:url(#SVGID_4_);enable-background:new    ;}
	.st8{fill:#FFCA28;}
	.st9{fill:#FFFFFF;fill-opacity:0.2;}
	.st10{opacity:0.2;fill:#A52714;enable-background:new    ;}
	.st11{fill:url(#SVGID_5_);}
	.st12{opacity:0.54;}
	.st13{clip-path:url(#SVGID_7_);}
	.st14{opacity:0.12;fill:url(#SVGID_8_);enable-background:new    ;}
	.st15{opacity:0.2;fill:url(#SVGID_9_);enable-background:new    ;}
	.st16{fill:url(#SVGID_10_);}
	.st17{display:none;}
	.st18{display:inline;fill:#00FFFF;fill-opacity:0.2;}</style>
  <g transform="translate(217.11 -43.106)">
    <g transform="matrix(.36364 0 0 .36364 -232.04 7.4687)">
      <defs>
        <path id="SVGID_1_" d="m176.8 137.4c-0.4-2.2-2.4-3.6-4.6-3.3-0.8 0.1-1.6 0.5-2.2 1.1l-20.8 20.8-16.3-31.1c-1-2-3.4-2.7-5.4-1.7-0.7 0.4-1.3 1-1.7 1.7l-8.9 17-22.4-41.8c-1-1.9-3.5-2.7-5.4-1.6-1.1 0.6-1.9 1.7-2.1 2.9l-21.7 138.6 57.9 32.5c3.6 2 8.1 2 11.7 0l58.4-32.5z"/>
      </defs>
      <clipPath id="SVGID_2_">
        <use width="100%" height="100%" xlink:href="#SVGID_1_"/>
      </clipPath>
      <g class="st3" clip-path="url(#SVGID_2_)">
        <path class="st4" d="m65.3 240 21.7-138.6c0.3-2.2 2.4-3.7 4.6-3.3 1.2 0.2 2.3 1 2.9 2.1l22.4 41.8 8.9-17c1-2 3.4-2.7 5.4-1.7 0.7 0.4 1.3 1 1.7 1.7l60.4 115z"/>
        <linearGradient id="SVGID_3_" x1="90.242" x2="82.242" y1="137.44" y2="141.62" gradientTransform="matrix(1 0 0 -1 0 329.99)" gradientUnits="userSpaceOnUse">
          <stop stop-color="#A52714" offset="0"/>
          <stop stop-color="#A52714" stop-opacity=".5" offset=".4"/>
          <stop stop-color="#A52714" stop-opacity="0" offset=".8"/>
        </linearGradient>
        <path class="st5" d="m139.3 99-106-9v192l32-42z" fill="url(#SVGID_3_)"/>
        <path class="st6" d="m140.2 186-23.3-44.1-51.6 98.1z"/>
        <linearGradient id="SVGID_4_" x1="124.24" x2="120.66" y1="149.08" y2="152.66" gradientTransform="matrix(1 0 0 -1 0 329.99)" gradientUnits="userSpaceOnUse">
          <stop stop-color="#A52714" stop-opacity=".8" offset="0"/>
          <stop stop-color="#A52714" stop-opacity=".21" offset=".5"/>
          <stop stop-color="#A52714" stop-opacity="0" offset="1"/>
        </linearGradient>
        <path class="st7" d="m33.3 90h192v192h-192z" fill="url(#SVGID_4_)"/>
        <path class="st8" d="m193.3 240-16.6-102.7c-0.4-2.2-2.4-3.6-4.6-3.3-0.8 0.1-1.6 0.5-2.2 1.1l-104.6 104.9 57.9 32.5c3.6 2 8.1 2 11.7 0z"/>
        <path class="st9" d="m176.8 137.4c-0.4-2.2-2.4-3.6-4.6-3.3-0.8 0.1-1.6 0.5-2.2 1.1l-20.8 20.8-16.3-31.1c-1-2-3.4-2.7-5.4-1.7-0.7 0.4-1.3 1-1.7 1.7l-8.9 17-22.4-41.8c-1-1.9-3.5-2.7-5.4-1.6-1.1 0.6-1.9 1.7-2.1 2.9l-21.7 138.6h-0.1l0.1 0.1 0.6 0.3 83.3-83.4 20.8-20.8c1.6-1.6 4.1-1.6 5.7 0 0.6 0.6 1 1.3 1.1 2.2l16.4 101.7 0.2-0.1zm-111.3 102.4 21.5-137.4c0.3-2.2 2.4-3.7 4.6-3.3 1.2 0.2 2.3 1 2.9 2.1l22.4 41.8 8.9-17c1-2 3.4-2.7 5.4-1.7 0.7 0.4 1.3 1 1.7 1.7l16 30.4z"/>
        <path class="st10" d="m134.9 271.5c-3.6 2-8.1 2-11.7 0l-57.8-32.4-0.1 0.9 57.9 32.5c3.6 2 8.1 2 11.7 0l58.4-32.5-0.1-0.9z"/>
        <linearGradient id="SVGID_5_" x1="-597.05" x2="-546.98" y1="1378.5" y2="1428.5" gradientTransform="matrix(2.67 0 0 2.67 1656 -3551.5)" gradientUnits="userSpaceOnUse">
          <stop stop-color="#fff" stop-opacity=".1" offset="0"/>
          <stop stop-color="#fff" stop-opacity="0" offset="1"/>
        </linearGradient>
        <path class="st11" d="m176.8 137.4c-0.4-2.2-2.4-3.6-4.6-3.3-0.8 0.1-1.6 0.5-2.2 1.1l-20.8 20.8-16.3-31.1c-1-2-3.4-2.7-5.4-1.7-0.7 0.4-1.3 1-1.7 1.7l-8.9 17-22.4-41.8c-1-1.9-3.5-2.7-5.4-1.6-1.1 0.6-1.9 1.7-2.1 2.9l-21.7 138.6 57.9 32.5c3.6 2 8.1 2 11.7 0l58.4-32.5z" fill="url(#SVGID_5_)"/>
      </g>
    </g>
  </g>
  <g id="guides" class="st17" transform="translate(204.02 -19.722)">
    <rect id="XMLID_13_" class="st18" x="-.6" y="272" width="753.2" height="64"/>
    <rect id="XMLID_10_" class="st18" x="-.6" width="753.2" height="64"/>
    <rect class="st18" x="688.5" width="64" height="336"/>
    <rect class="st18" x="196.3" width="48" height="336"/>
    <rect class="st18" x="-.5" width="64" height="336"/>
  </g>
</svg>
