<svg version="1.1" viewBox="0 0 64 64" xmlns="http://www.w3.org/2000/svg">
  <g transform="translate(-135.03 -118.74)" fill="none" fill-rule="evenodd">
    <g transform="matrix(.23308 0 0 .23308 139.03 118.57)">
      <path d="m211.54 54.198c-0.18972-1.3808-1.3986-2.144-2.398-2.2278-0.99713-0.08382-22.104-1.6477-22.104-1.6477s-14.659-14.552-16.267-16.162c-1.6104-1.6102-4.754-1.1205-5.9739-0.761-0.18089 0.05294-3.2032 0.98598-8.2042 2.5322-4.8974-14.088-13.538-27.036-28.742-27.036-0.41915 0-0.85153 0.017646-1.2839 0.04191-4.3238-5.7174-9.6801-8.2011-14.306-8.2011-35.416 0-52.336 44.268-57.641 66.765-13.761 4.2638-23.538 7.2945-24.787 7.6872-7.6814 2.4087-7.9241 2.6514-8.9322 9.8885-0.76108 5.4792-20.86 160.9-20.86 160.9l156.62 29.341 84.862-18.357s-29.79-201.38-29.978-202.76zm-63.604-15.588c-3.9334 1.2176-8.405 2.6006-13.252 4.1005 4e-3 -0.93305 9e-3 -1.8529 9e-3 -2.8565 0-8.757-1.2155-15.807-3.1657-21.396 7.8336 0.98378 13.051 9.8951 16.408 20.152zm-26.126-18.416c2.1774 5.4571 3.5936 13.288 3.5936 23.856 0 0.54042-4e-3 1.0345-9e-3 1.5352-8.619 2.669-17.984 5.5674-27.37 8.4746 5.2702-20.337 15.149-30.16 23.785-33.865zm-10.523-9.9591c1.5288 0 3.0686 0.51836 4.5422 1.533-11.35 5.3402-23.516 18.791-28.654 45.651-7.5093 2.3249-14.849 4.5968-21.635 6.699 6.0181-20.487 20.309-53.883 45.746-53.883z" fill="#95bf46"/>
      <path d="m187.03 50.323s-14.659-14.552-16.267-16.162c-0.60225-0.59997-1.4141-0.90658-2.2634-1.0389l-11.842 242.19 84.853-18.354s-29.79-201.38-29.978-202.76c-0.18972-1.3808-1.3986-2.144-2.398-2.2278-0.99713-0.08382-22.104-1.6477-22.104-1.6477z" fill="#5e8e3e"/>
      <path d="m127.85 98.854-10.463 31.121s-9.1683-4.8924-20.406-4.8924c-16.475 0-17.304 10.338-17.304 12.944 0 14.214 37.057 19.66 37.057 52.954 0 26.194-16.616 43.061-39.02 43.061-26.885 0-40.633-16.731-40.633-16.731l7.1983-23.781s14.132 12.132 26.058 12.132c7.7917 0 10.962-6.1343 10.962-10.616 0-18.542-30.401-19.369-30.401-49.835 0-25.642 18.407-50.457 55.563-50.457 14.317 0 21.39 4.1006 21.39 4.1006" fill="#fff"/>
    </g>
  </g>
</svg>
